<?xml version="1.0" encoding="UTF-8" standalone="no"?>
<svg
   xmlns:dc="http://purl.org/dc/elements/1.1/"
   xmlns:cc="http://creativecommons.org/ns#"
   xmlns:rdf="http://www.w3.org/1999/02/22-rdf-syntax-ns#"
   xmlns:svg="http://www.w3.org/2000/svg"
   xmlns="http://www.w3.org/2000/svg"
   id="svg8"
   preserveAspectRatio="xMidYMid meet"
   viewBox="0 0 180.000000 180.000000"
   height="180.000000pt"
   width="180.000000pt"
   version="1.0">
  <defs
     id="defs12" />
  <metadata
     id="metadata2">
Created by potrace 1.16, written by Peter Selinger 2001-2019
<rdf:RDF>
  <cc:Work
     rdf:about="">
    <dc:format>image/svg+xml</dc:format>
    <dc:type
       rdf:resource="http://purl.org/dc/dcmitype/StillImage" />
  </cc:Work>
</rdf:RDF>
</metadata>
  <g
     id="g6"
     stroke="none"
     fill="#000000"
     transform="translate(0.000000,180.000000) scale(0.100000,-0.100000)">
    <path
       id="path4"
       d="M857 1693 c-4 -3 -7 -283 -8 -622 l0 -616 -25 70 c-14 39 -29 79 -33 90 -4 11 -13 36 -20 55 -7 19 -37 105 -67 190 -30 85 -64 182 -75 215 -11 33 -24 69 -29 80 -5 11 -14 37 -20 58 l-12 38 -61 -3 -62 -3 -5 -410 c-5 -437 -4 -428 -50 -295 -21 63 -30 85 -49 133 -5 12 -26 69 -46 127 -58 165 -48 152 -103 148 l-47 -3 -1 -270 c0 -287 -5 -324 -51 -381 -18 -22 -28 -26 -57 -22 l-36 4 0 -78 0 -78 38 0 c46 0 102 36 132 86 26 42 58 154 67 236 6 58 6 58 39 58 31 0 33 -3 59 -73 45 -121 87 -230 103 -264 13 -31 17 -33 67 -33 39 0 54 4 59 16 3 9 6 189 6 401 0 213 3 383 7 380 4 -4 23 -58 44 -120 21 -61 55 -161 77 -222 22 -60 56 -157 76 -215 20 -58 48 -135 62 -173 l26 -67 83 0 c66 0 84 3 89 16 3 9 6 203 7 432 0 229 2 413 4 407 2 -5 13 -95 24 -200 12 -104 31 -262 43 -350 33 -248 53 -240 83 35 8 80 18 161 21 180 3 19 10 71 15 115 15 132 26 211 27 193 20 -216 27 -265 69 -437 45 -185 134 -320 246 -375 46 -22 67 -26 140 -26 l87 0 0 146 c0 80 -3 144 -7 142 -5 -2 -30 -14 -58 -28 -141 -68 -222 4 -279 250 -13 58 -24 131 -42 285 -3 28 -8 216 -10 418 l-5 368 -67 -3 -67 -3 -7 -50 c-8 -56 -35 -279 -49 -400 -4 -44 -12 -109 -17 -145 -5 -36 -15 -120 -22 -187 -7 -68 -15 -122 -16 -120 -6 6 -34 217 -54 397 -19 181 -34 309 -45 380 -3 19 -8 56 -11 83 l-7 47 -87 0 c-47 0 -90 -3 -93 -7z" />
  </g>
</svg>
